<svg xmlns="http://www.w3.org/2000/svg" viewBox="0 0 200 260" width="200" height="260" fill="none">
  <defs>
    <g id="lamp">
      <path d="M152 226 C169 223 178 234 171 243 C165 250 156 252 149 249" fill="none" stroke="#171f1b" stroke-width="10" stroke-linecap="round"/>
      <path d="M152 226 C169 223 178 234 171 243 C165 250 156 252 149 249" fill="none" stroke="#f5c842" stroke-width="5" stroke-linecap="round"/>
      <rect x="80" y="248" width="60" height="8" rx="4" fill="#d8b03a" stroke="#171f1b" stroke-width="3"/>
      <path d="M103 238 L117 238 C113 242 113 244 120 249 L100 249 C107 244 107 242 103 238 Z" fill="#d8b03a" stroke="#171f1b" stroke-width="3" stroke-linejoin="round"/>
      <path d="M67 227 L149 227 L124 248 L93 248 Z" fill="#f5c842" stroke="#171f1b" stroke-width="3" stroke-linejoin="round"/>
      <path d="M78 240 L138 240 L124 248 L93 248 Z" fill="rgba(23,31,27,0.2)"/>
      <path d="M62 220 C66 217 72 215 78 215 L150 215 C154 215 157 217 157 221 C157 225 154 227 150 227 L76 227 C70 226 65 224 62 220 Z" fill="#f5c842" stroke="#171f1b" stroke-width="3" stroke-linejoin="round"/>
      <path d="M86 220 L118 220" stroke="rgba(251,251,247,0.6)" stroke-width="3" stroke-linecap="round"/>
    </g>
    <g id="base">
      <path d="M78 120 C60 134 52 154 54 174 C56 192 68 204 88 206 C96 214 88 223 72 224 C96 225 126 215 148 197 C151 184 138 172 124 176 C130 158 130 136 122 120 Z" fill="#1e7e50" stroke="#171f1b" stroke-width="3" stroke-linejoin="round"/>
      <path d="M88 206 C96 214 88 223 72 224 C94 222 122 213 135 202 C124 205 104 210 88 206 Z" fill="rgba(23,31,27,0.17)"/>
      <path d="M56 176 C60 192 72 202 90 205 C74 205 60 197 56 186 Z" fill="rgba(23,31,27,0.12)"/>
      <use href="#lamp"/>
      <g fill="none" stroke-linecap="round">
        <path d="M58 150 C80 161 104 161 128 147" stroke="#171f1b" stroke-width="14"/>
        <path d="M58 150 C80 161 104 161 128 147" stroke="#f5c842" stroke-width="8"/>
      </g>
      <path d="M100 52 C127 52 143 71 141 98 C140 112 133 124 125 131 L75 131 C67 124 60 112 59 98 C57 71 73 52 100 52 Z" fill="#1e7e50" stroke="#171f1b" stroke-width="3" stroke-linejoin="round"/>
      <path d="M92 57 C95 40 106 34 111 44 C114 53 109 59 104 61 Z" fill="#1e7e50" stroke="#171f1b" stroke-width="3" stroke-linejoin="round"/>
      <path d="M80 122 C86 136 114 136 120 122 C114 129 86 129 80 122 Z" fill="rgba(23,31,27,0.45)"/>
      <circle cx="100" cy="99" r="27" fill="#f4f1ea" stroke="#171f1b" stroke-width="3"/>
      <path d="M73 91 C75 74 86 65 100 65 C114 65 125 74 127 91 C121 79 112 74 100 74 C88 74 79 79 73 91 Z" fill="#f5c842" stroke="#171f1b" stroke-width="2.5" stroke-linejoin="round"/>
      <path d="M95 119 C97 125 103 125 105 119 C105 129 95 129 95 119 Z" fill="#171f1b"/>
    </g>
  </defs>
  <use href="#base"/>
  <g stroke-linecap="round" fill="none">
    <path d="M80 130 C64 122 58 104 62 90" stroke="#171f1b" stroke-width="25"/>
    <path d="M80 130 C64 122 58 104 62 90" stroke="#1e7e50" stroke-width="18"/>
    <path d="M80 130 C64 122 58 104 62 90" stroke="rgba(23,31,27,0.15)" stroke-width="18"/>
  </g>
  <circle cx="61" cy="84" r="10" fill="#f4f1ea" stroke="#171f1b" stroke-width="3"/>
  <g stroke-linecap="round" fill="none">
    <path d="M120 130 C136 122 142 104 138 90" stroke="#171f1b" stroke-width="25"/>
    <path d="M120 130 C136 122 142 104 138 90" stroke="#1e7e50" stroke-width="18"/>
    <path d="M120 130 C136 122 142 104 138 90" stroke="rgba(23,31,27,0.15)" stroke-width="18"/>
  </g>
  <circle cx="139" cy="84" r="10" fill="#f4f1ea" stroke="#171f1b" stroke-width="3"/>
  <path d="M84 101 C87 95 93 95 96 101" stroke="#171f1b" stroke-width="3.5" fill="none" stroke-linecap="round"/>
  <path d="M104 101 C107 95 113 95 116 101" stroke="#171f1b" stroke-width="3.5" fill="none" stroke-linecap="round"/>
  <path d="M81 83 L95 81" stroke="#171f1b" stroke-width="3.5" stroke-linecap="round"/>
  <path d="M105 81 L119 83" stroke="#171f1b" stroke-width="3.5" stroke-linecap="round"/>
  <path d="M90 110 C95 122 105 122 110 110 Z" fill="#171f1b"/>
  <path d="M46 118 L49 126 L57 129 L49 132 L46 140 L43 132 L35 129 L43 126 Z" fill="#f5c842"/>
  <path d="M156 112 L158 118 L164 120 L158 122 L156 128 L154 122 L148 120 L154 118 Z" fill="#f5c842"/>
  <path d="M150 168 L152 174 L158 176 L152 178 L150 184 L148 178 L142 176 L148 174 Z" fill="#f5c842"/>
</svg>
